%TF.GenerationSoftware,KiCad,Pcbnew,(5.99.0-13276-g0b59246279)*%
%TF.CreationDate,2021-11-22T01:28:44-07:00*%
%TF.ProjectId,sui,7375692e-6b69-4636-9164-5f7063625858,1*%
%TF.SameCoordinates,Original*%
%TF.FileFunction,Legend,Bot*%
%TF.FilePolarity,Positive*%
%FSLAX46Y46*%
G04 Gerber Fmt 4.6, Leading zero omitted, Abs format (unit mm)*
G04 Created by KiCad (PCBNEW (5.99.0-13276-g0b59246279)) date 2021-11-22 01:28:44*
%MOMM*%
%LPD*%
G01*
G04 APERTURE LIST*
%ADD10C,0.150000*%
%ADD11C,0.101600*%
%ADD12C,0.120000*%
%ADD13C,0.066040*%
%ADD14C,0.127000*%
%ADD15C,0.254000*%
G04 APERTURE END LIST*
D10*
%TO.C,D2*%
X54713095Y-75446130D02*
X54713095Y-74446130D01*
X54475000Y-74446130D01*
X54332142Y-74493750D01*
X54236904Y-74588988D01*
X54189285Y-74684226D01*
X54141666Y-74874702D01*
X54141666Y-75017559D01*
X54189285Y-75208035D01*
X54236904Y-75303273D01*
X54332142Y-75398511D01*
X54475000Y-75446130D01*
X54713095Y-75446130D01*
X53760714Y-74541369D02*
X53713095Y-74493750D01*
X53617857Y-74446130D01*
X53379761Y-74446130D01*
X53284523Y-74493750D01*
X53236904Y-74541369D01*
X53189285Y-74636607D01*
X53189285Y-74731845D01*
X53236904Y-74874702D01*
X53808333Y-75446130D01*
X53189285Y-75446130D01*
%TO.C,D33*%
X124245535Y-115221130D02*
X124245535Y-114221130D01*
X124007440Y-114221130D01*
X123864583Y-114268750D01*
X123769345Y-114363988D01*
X123721726Y-114459226D01*
X123674107Y-114649702D01*
X123674107Y-114792559D01*
X123721726Y-114983035D01*
X123769345Y-115078273D01*
X123864583Y-115173511D01*
X124007440Y-115221130D01*
X124245535Y-115221130D01*
X123340773Y-114221130D02*
X122721726Y-114221130D01*
X123055059Y-114602083D01*
X122912202Y-114602083D01*
X122816964Y-114649702D01*
X122769345Y-114697321D01*
X122721726Y-114792559D01*
X122721726Y-115030654D01*
X122769345Y-115125892D01*
X122816964Y-115173511D01*
X122912202Y-115221130D01*
X123197916Y-115221130D01*
X123293154Y-115173511D01*
X123340773Y-115125892D01*
X122388392Y-114221130D02*
X121769345Y-114221130D01*
X122102678Y-114602083D01*
X121959821Y-114602083D01*
X121864583Y-114649702D01*
X121816964Y-114697321D01*
X121769345Y-114792559D01*
X121769345Y-115030654D01*
X121816964Y-115125892D01*
X121864583Y-115173511D01*
X121959821Y-115221130D01*
X122245535Y-115221130D01*
X122340773Y-115173511D01*
X122388392Y-115125892D01*
X126895535Y-117121130D02*
X127466964Y-117121130D01*
X127181250Y-117121130D02*
X127181250Y-116121130D01*
X127276488Y-116263988D01*
X127371726Y-116359226D01*
X127466964Y-116406845D01*
%TO.C,D27*%
X124245535Y-68389880D02*
X124245535Y-67389880D01*
X124007440Y-67389880D01*
X123864583Y-67437500D01*
X123769345Y-67532738D01*
X123721726Y-67627976D01*
X123674107Y-67818452D01*
X123674107Y-67961309D01*
X123721726Y-68151785D01*
X123769345Y-68247023D01*
X123864583Y-68342261D01*
X124007440Y-68389880D01*
X124245535Y-68389880D01*
X123293154Y-67485119D02*
X123245535Y-67437500D01*
X123150297Y-67389880D01*
X122912202Y-67389880D01*
X122816964Y-67437500D01*
X122769345Y-67485119D01*
X122721726Y-67580357D01*
X122721726Y-67675595D01*
X122769345Y-67818452D01*
X123340773Y-68389880D01*
X122721726Y-68389880D01*
X122388392Y-67389880D02*
X121721726Y-67389880D01*
X122150297Y-68389880D01*
X126895535Y-70289880D02*
X127466964Y-70289880D01*
X127181250Y-70289880D02*
X127181250Y-69289880D01*
X127276488Y-69432738D01*
X127371726Y-69527976D01*
X127466964Y-69575595D01*
%TO.C,D22*%
X248133035Y-98496130D02*
X248133035Y-97496130D01*
X247894940Y-97496130D01*
X247752083Y-97543750D01*
X247656845Y-97638988D01*
X247609226Y-97734226D01*
X247561607Y-97924702D01*
X247561607Y-98067559D01*
X247609226Y-98258035D01*
X247656845Y-98353273D01*
X247752083Y-98448511D01*
X247894940Y-98496130D01*
X248133035Y-98496130D01*
X247180654Y-97591369D02*
X247133035Y-97543750D01*
X247037797Y-97496130D01*
X246799702Y-97496130D01*
X246704464Y-97543750D01*
X246656845Y-97591369D01*
X246609226Y-97686607D01*
X246609226Y-97781845D01*
X246656845Y-97924702D01*
X247228273Y-98496130D01*
X246609226Y-98496130D01*
X246228273Y-97591369D02*
X246180654Y-97543750D01*
X246085416Y-97496130D01*
X245847321Y-97496130D01*
X245752083Y-97543750D01*
X245704464Y-97591369D01*
X245656845Y-97686607D01*
X245656845Y-97781845D01*
X245704464Y-97924702D01*
X246275892Y-98496130D01*
X245656845Y-98496130D01*
%TO.C,D29*%
X244895535Y-98552380D02*
X244895535Y-97552380D01*
X244657440Y-97552380D01*
X244514583Y-97600000D01*
X244419345Y-97695238D01*
X244371726Y-97790476D01*
X244324107Y-97980952D01*
X244324107Y-98123809D01*
X244371726Y-98314285D01*
X244419345Y-98409523D01*
X244514583Y-98504761D01*
X244657440Y-98552380D01*
X244895535Y-98552380D01*
X243943154Y-97647619D02*
X243895535Y-97600000D01*
X243800297Y-97552380D01*
X243562202Y-97552380D01*
X243466964Y-97600000D01*
X243419345Y-97647619D01*
X243371726Y-97742857D01*
X243371726Y-97838095D01*
X243419345Y-97980952D01*
X243990773Y-98552380D01*
X243371726Y-98552380D01*
X242895535Y-98552380D02*
X242705059Y-98552380D01*
X242609821Y-98504761D01*
X242562202Y-98457142D01*
X242466964Y-98314285D01*
X242419345Y-98123809D01*
X242419345Y-97742857D01*
X242466964Y-97647619D01*
X242514583Y-97600000D01*
X242609821Y-97552380D01*
X242800297Y-97552380D01*
X242895535Y-97600000D01*
X242943154Y-97647619D01*
X242990773Y-97742857D01*
X242990773Y-97980952D01*
X242943154Y-98076190D01*
X242895535Y-98123809D01*
X242800297Y-98171428D01*
X242609821Y-98171428D01*
X242514583Y-98123809D01*
X242466964Y-98076190D01*
X242419345Y-97980952D01*
X247545535Y-100452380D02*
X248116964Y-100452380D01*
X247831250Y-100452380D02*
X247831250Y-99452380D01*
X247926488Y-99595238D01*
X248021726Y-99690476D01*
X248116964Y-99738095D01*
%TO.C,D5*%
X73458630Y-73730654D02*
X72458630Y-73730654D01*
X72458630Y-73968750D01*
X72506250Y-74111607D01*
X72601488Y-74206845D01*
X72696726Y-74254464D01*
X72887202Y-74302083D01*
X73030059Y-74302083D01*
X73220535Y-74254464D01*
X73315773Y-74206845D01*
X73411011Y-74111607D01*
X73458630Y-73968750D01*
X73458630Y-73730654D01*
X72458630Y-75206845D02*
X72458630Y-74730654D01*
X72934821Y-74683035D01*
X72887202Y-74730654D01*
X72839583Y-74825892D01*
X72839583Y-75063988D01*
X72887202Y-75159226D01*
X72934821Y-75206845D01*
X73030059Y-75254464D01*
X73268154Y-75254464D01*
X73363392Y-75206845D01*
X73411011Y-75159226D01*
X73458630Y-75063988D01*
X73458630Y-74825892D01*
X73411011Y-74730654D01*
X73363392Y-74683035D01*
D11*
%TO.C,U1*%
X104732243Y-45207226D02*
X104732243Y-45926893D01*
X104689910Y-46011560D01*
X104647576Y-46053893D01*
X104562910Y-46096226D01*
X104393576Y-46096226D01*
X104308910Y-46053893D01*
X104266576Y-46011560D01*
X104224243Y-45926893D01*
X104224243Y-45207226D01*
X103335243Y-46096226D02*
X103843243Y-46096226D01*
X103589243Y-46096226D02*
X103589243Y-45207226D01*
X103673910Y-45334226D01*
X103758576Y-45418893D01*
X103843243Y-45461226D01*
D10*
%TO.C,D30*%
X244895535Y-60452380D02*
X244895535Y-59452380D01*
X244657440Y-59452380D01*
X244514583Y-59500000D01*
X244419345Y-59595238D01*
X244371726Y-59690476D01*
X244324107Y-59880952D01*
X244324107Y-60023809D01*
X244371726Y-60214285D01*
X244419345Y-60309523D01*
X244514583Y-60404761D01*
X244657440Y-60452380D01*
X244895535Y-60452380D01*
X243990773Y-59452380D02*
X243371726Y-59452380D01*
X243705059Y-59833333D01*
X243562202Y-59833333D01*
X243466964Y-59880952D01*
X243419345Y-59928571D01*
X243371726Y-60023809D01*
X243371726Y-60261904D01*
X243419345Y-60357142D01*
X243466964Y-60404761D01*
X243562202Y-60452380D01*
X243847916Y-60452380D01*
X243943154Y-60404761D01*
X243990773Y-60357142D01*
X242752678Y-59452380D02*
X242657440Y-59452380D01*
X242562202Y-59500000D01*
X242514583Y-59547619D01*
X242466964Y-59642857D01*
X242419345Y-59833333D01*
X242419345Y-60071428D01*
X242466964Y-60261904D01*
X242514583Y-60357142D01*
X242562202Y-60404761D01*
X242657440Y-60452380D01*
X242752678Y-60452380D01*
X242847916Y-60404761D01*
X242895535Y-60357142D01*
X242943154Y-60261904D01*
X242990773Y-60071428D01*
X242990773Y-59833333D01*
X242943154Y-59642857D01*
X242895535Y-59547619D01*
X242847916Y-59500000D01*
X242752678Y-59452380D01*
X247545535Y-62352380D02*
X248116964Y-62352380D01*
X247831250Y-62352380D02*
X247831250Y-61352380D01*
X247926488Y-61495238D01*
X248021726Y-61590476D01*
X248116964Y-61638095D01*
%TO.C,D18*%
X223458630Y-73254464D02*
X222458630Y-73254464D01*
X222458630Y-73492559D01*
X222506250Y-73635416D01*
X222601488Y-73730654D01*
X222696726Y-73778273D01*
X222887202Y-73825892D01*
X223030059Y-73825892D01*
X223220535Y-73778273D01*
X223315773Y-73730654D01*
X223411011Y-73635416D01*
X223458630Y-73492559D01*
X223458630Y-73254464D01*
X223458630Y-74778273D02*
X223458630Y-74206845D01*
X223458630Y-74492559D02*
X222458630Y-74492559D01*
X222601488Y-74397321D01*
X222696726Y-74302083D01*
X222744345Y-74206845D01*
X222887202Y-75349702D02*
X222839583Y-75254464D01*
X222791964Y-75206845D01*
X222696726Y-75159226D01*
X222649107Y-75159226D01*
X222553869Y-75206845D01*
X222506250Y-75254464D01*
X222458630Y-75349702D01*
X222458630Y-75540178D01*
X222506250Y-75635416D01*
X222553869Y-75683035D01*
X222649107Y-75730654D01*
X222696726Y-75730654D01*
X222791964Y-75683035D01*
X222839583Y-75635416D01*
X222887202Y-75540178D01*
X222887202Y-75349702D01*
X222934821Y-75254464D01*
X222982440Y-75206845D01*
X223077678Y-75159226D01*
X223268154Y-75159226D01*
X223363392Y-75206845D01*
X223411011Y-75254464D01*
X223458630Y-75349702D01*
X223458630Y-75540178D01*
X223411011Y-75635416D01*
X223363392Y-75683035D01*
X223268154Y-75730654D01*
X223077678Y-75730654D01*
X222982440Y-75683035D01*
X222934821Y-75635416D01*
X222887202Y-75540178D01*
%TO.C,R2*%
X177396130Y-88933333D02*
X176919940Y-88600000D01*
X177396130Y-88361904D02*
X176396130Y-88361904D01*
X176396130Y-88742857D01*
X176443750Y-88838095D01*
X176491369Y-88885714D01*
X176586607Y-88933333D01*
X176729464Y-88933333D01*
X176824702Y-88885714D01*
X176872321Y-88838095D01*
X176919940Y-88742857D01*
X176919940Y-88361904D01*
X176491369Y-89314285D02*
X176443750Y-89361904D01*
X176396130Y-89457142D01*
X176396130Y-89695238D01*
X176443750Y-89790476D01*
X176491369Y-89838095D01*
X176586607Y-89885714D01*
X176681845Y-89885714D01*
X176824702Y-89838095D01*
X177396130Y-89266666D01*
X177396130Y-89885714D01*
%TO.C,D15*%
X185377380Y-122610714D02*
X184377380Y-122610714D01*
X184377380Y-122848809D01*
X184425000Y-122991666D01*
X184520238Y-123086904D01*
X184615476Y-123134523D01*
X184805952Y-123182142D01*
X184948809Y-123182142D01*
X185139285Y-123134523D01*
X185234523Y-123086904D01*
X185329761Y-122991666D01*
X185377380Y-122848809D01*
X185377380Y-122610714D01*
X185377380Y-124134523D02*
X185377380Y-123563095D01*
X185377380Y-123848809D02*
X184377380Y-123848809D01*
X184520238Y-123753571D01*
X184615476Y-123658333D01*
X184663095Y-123563095D01*
X184377380Y-125039285D02*
X184377380Y-124563095D01*
X184853571Y-124515476D01*
X184805952Y-124563095D01*
X184758333Y-124658333D01*
X184758333Y-124896428D01*
X184805952Y-124991666D01*
X184853571Y-125039285D01*
X184948809Y-125086904D01*
X185186904Y-125086904D01*
X185282142Y-125039285D01*
X185329761Y-124991666D01*
X185377380Y-124896428D01*
X185377380Y-124658333D01*
X185329761Y-124563095D01*
X185282142Y-124515476D01*
%TO.C,D12*%
X185377380Y-70223214D02*
X184377380Y-70223214D01*
X184377380Y-70461309D01*
X184425000Y-70604166D01*
X184520238Y-70699404D01*
X184615476Y-70747023D01*
X184805952Y-70794642D01*
X184948809Y-70794642D01*
X185139285Y-70747023D01*
X185234523Y-70699404D01*
X185329761Y-70604166D01*
X185377380Y-70461309D01*
X185377380Y-70223214D01*
X185377380Y-71747023D02*
X185377380Y-71175595D01*
X185377380Y-71461309D02*
X184377380Y-71461309D01*
X184520238Y-71366071D01*
X184615476Y-71270833D01*
X184663095Y-71175595D01*
X184472619Y-72127976D02*
X184425000Y-72175595D01*
X184377380Y-72270833D01*
X184377380Y-72508928D01*
X184425000Y-72604166D01*
X184472619Y-72651785D01*
X184567857Y-72699404D01*
X184663095Y-72699404D01*
X184805952Y-72651785D01*
X185377380Y-72080357D01*
X185377380Y-72699404D01*
%TO.C,D17*%
X223458630Y-53554464D02*
X222458630Y-53554464D01*
X222458630Y-53792559D01*
X222506250Y-53935416D01*
X222601488Y-54030654D01*
X222696726Y-54078273D01*
X222887202Y-54125892D01*
X223030059Y-54125892D01*
X223220535Y-54078273D01*
X223315773Y-54030654D01*
X223411011Y-53935416D01*
X223458630Y-53792559D01*
X223458630Y-53554464D01*
X223458630Y-55078273D02*
X223458630Y-54506845D01*
X223458630Y-54792559D02*
X222458630Y-54792559D01*
X222601488Y-54697321D01*
X222696726Y-54602083D01*
X222744345Y-54506845D01*
X222458630Y-55411607D02*
X222458630Y-56078273D01*
X223458630Y-55649702D01*
%TO.C,D32*%
X179014285Y-68389880D02*
X179014285Y-67389880D01*
X178776190Y-67389880D01*
X178633333Y-67437500D01*
X178538095Y-67532738D01*
X178490476Y-67627976D01*
X178442857Y-67818452D01*
X178442857Y-67961309D01*
X178490476Y-68151785D01*
X178538095Y-68247023D01*
X178633333Y-68342261D01*
X178776190Y-68389880D01*
X179014285Y-68389880D01*
X178109523Y-67389880D02*
X177490476Y-67389880D01*
X177823809Y-67770833D01*
X177680952Y-67770833D01*
X177585714Y-67818452D01*
X177538095Y-67866071D01*
X177490476Y-67961309D01*
X177490476Y-68199404D01*
X177538095Y-68294642D01*
X177585714Y-68342261D01*
X177680952Y-68389880D01*
X177966666Y-68389880D01*
X178061904Y-68342261D01*
X178109523Y-68294642D01*
X177109523Y-67485119D02*
X177061904Y-67437500D01*
X176966666Y-67389880D01*
X176728571Y-67389880D01*
X176633333Y-67437500D01*
X176585714Y-67485119D01*
X176538095Y-67580357D01*
X176538095Y-67675595D01*
X176585714Y-67818452D01*
X177157142Y-68389880D01*
X176538095Y-68389880D01*
X181664285Y-70289880D02*
X182235714Y-70289880D01*
X181950000Y-70289880D02*
X181950000Y-69289880D01*
X182045238Y-69432738D01*
X182140476Y-69527976D01*
X182235714Y-69575595D01*
%TO.C,D25*%
X58364285Y-60452380D02*
X58364285Y-59452380D01*
X58126190Y-59452380D01*
X57983333Y-59500000D01*
X57888095Y-59595238D01*
X57840476Y-59690476D01*
X57792857Y-59880952D01*
X57792857Y-60023809D01*
X57840476Y-60214285D01*
X57888095Y-60309523D01*
X57983333Y-60404761D01*
X58126190Y-60452380D01*
X58364285Y-60452380D01*
X57411904Y-59547619D02*
X57364285Y-59500000D01*
X57269047Y-59452380D01*
X57030952Y-59452380D01*
X56935714Y-59500000D01*
X56888095Y-59547619D01*
X56840476Y-59642857D01*
X56840476Y-59738095D01*
X56888095Y-59880952D01*
X57459523Y-60452380D01*
X56840476Y-60452380D01*
X55935714Y-59452380D02*
X56411904Y-59452380D01*
X56459523Y-59928571D01*
X56411904Y-59880952D01*
X56316666Y-59833333D01*
X56078571Y-59833333D01*
X55983333Y-59880952D01*
X55935714Y-59928571D01*
X55888095Y-60023809D01*
X55888095Y-60261904D01*
X55935714Y-60357142D01*
X55983333Y-60404761D01*
X56078571Y-60452380D01*
X56316666Y-60452380D01*
X56411904Y-60404761D01*
X56459523Y-60357142D01*
X61014285Y-62352380D02*
X61585714Y-62352380D01*
X61300000Y-62352380D02*
X61300000Y-61352380D01*
X61395238Y-61495238D01*
X61490476Y-61590476D01*
X61585714Y-61638095D01*
%TO.C,D1*%
X54713095Y-56396130D02*
X54713095Y-55396130D01*
X54475000Y-55396130D01*
X54332142Y-55443750D01*
X54236904Y-55538988D01*
X54189285Y-55634226D01*
X54141666Y-55824702D01*
X54141666Y-55967559D01*
X54189285Y-56158035D01*
X54236904Y-56253273D01*
X54332142Y-56348511D01*
X54475000Y-56396130D01*
X54713095Y-56396130D01*
X53189285Y-56396130D02*
X53760714Y-56396130D01*
X53475000Y-56396130D02*
X53475000Y-55396130D01*
X53570238Y-55538988D01*
X53665476Y-55634226D01*
X53760714Y-55681845D01*
%TO.C,D16*%
X209970535Y-117546130D02*
X209970535Y-116546130D01*
X209732440Y-116546130D01*
X209589583Y-116593750D01*
X209494345Y-116688988D01*
X209446726Y-116784226D01*
X209399107Y-116974702D01*
X209399107Y-117117559D01*
X209446726Y-117308035D01*
X209494345Y-117403273D01*
X209589583Y-117498511D01*
X209732440Y-117546130D01*
X209970535Y-117546130D01*
X208446726Y-117546130D02*
X209018154Y-117546130D01*
X208732440Y-117546130D02*
X208732440Y-116546130D01*
X208827678Y-116688988D01*
X208922916Y-116784226D01*
X209018154Y-116831845D01*
X207589583Y-116546130D02*
X207780059Y-116546130D01*
X207875297Y-116593750D01*
X207922916Y-116641369D01*
X208018154Y-116784226D01*
X208065773Y-116974702D01*
X208065773Y-117355654D01*
X208018154Y-117450892D01*
X207970535Y-117498511D01*
X207875297Y-117546130D01*
X207684821Y-117546130D01*
X207589583Y-117498511D01*
X207541964Y-117450892D01*
X207494345Y-117355654D01*
X207494345Y-117117559D01*
X207541964Y-117022321D01*
X207589583Y-116974702D01*
X207684821Y-116927083D01*
X207875297Y-116927083D01*
X207970535Y-116974702D01*
X208018154Y-117022321D01*
X208065773Y-117117559D01*
%TO.C,D10*%
X111558630Y-97210714D02*
X110558630Y-97210714D01*
X110558630Y-97448809D01*
X110606250Y-97591666D01*
X110701488Y-97686904D01*
X110796726Y-97734523D01*
X110987202Y-97782142D01*
X111130059Y-97782142D01*
X111320535Y-97734523D01*
X111415773Y-97686904D01*
X111511011Y-97591666D01*
X111558630Y-97448809D01*
X111558630Y-97210714D01*
X111558630Y-98734523D02*
X111558630Y-98163095D01*
X111558630Y-98448809D02*
X110558630Y-98448809D01*
X110701488Y-98353571D01*
X110796726Y-98258333D01*
X110844345Y-98163095D01*
X110558630Y-99353571D02*
X110558630Y-99448809D01*
X110606250Y-99544047D01*
X110653869Y-99591666D01*
X110749107Y-99639285D01*
X110939583Y-99686904D01*
X111177678Y-99686904D01*
X111368154Y-99639285D01*
X111463392Y-99591666D01*
X111511011Y-99544047D01*
X111558630Y-99448809D01*
X111558630Y-99353571D01*
X111511011Y-99258333D01*
X111463392Y-99210714D01*
X111368154Y-99163095D01*
X111177678Y-99115476D01*
X110939583Y-99115476D01*
X110749107Y-99163095D01*
X110653869Y-99210714D01*
X110606250Y-99258333D01*
X110558630Y-99353571D01*
%TO.C,D11*%
X111558630Y-122610714D02*
X110558630Y-122610714D01*
X110558630Y-122848809D01*
X110606250Y-122991666D01*
X110701488Y-123086904D01*
X110796726Y-123134523D01*
X110987202Y-123182142D01*
X111130059Y-123182142D01*
X111320535Y-123134523D01*
X111415773Y-123086904D01*
X111511011Y-122991666D01*
X111558630Y-122848809D01*
X111558630Y-122610714D01*
X111558630Y-124134523D02*
X111558630Y-123563095D01*
X111558630Y-123848809D02*
X110558630Y-123848809D01*
X110701488Y-123753571D01*
X110796726Y-123658333D01*
X110844345Y-123563095D01*
X111558630Y-125086904D02*
X111558630Y-124515476D01*
X111558630Y-124801190D02*
X110558630Y-124801190D01*
X110701488Y-124705952D01*
X110796726Y-124610714D01*
X110844345Y-124515476D01*
D11*
%TO.C,U2*%
X196807243Y-45207226D02*
X196807243Y-45926893D01*
X196764910Y-46011560D01*
X196722576Y-46053893D01*
X196637910Y-46096226D01*
X196468576Y-46096226D01*
X196383910Y-46053893D01*
X196341576Y-46011560D01*
X196299243Y-45926893D01*
X196299243Y-45207226D01*
X195918243Y-45291893D02*
X195875910Y-45249560D01*
X195791243Y-45207226D01*
X195579576Y-45207226D01*
X195494910Y-45249560D01*
X195452576Y-45291893D01*
X195410243Y-45376560D01*
X195410243Y-45461226D01*
X195452576Y-45588226D01*
X195960576Y-46096226D01*
X195410243Y-46096226D01*
D10*
%TO.C,D28*%
X217114285Y-104108630D02*
X217114285Y-103108630D01*
X216876190Y-103108630D01*
X216733333Y-103156250D01*
X216638095Y-103251488D01*
X216590476Y-103346726D01*
X216542857Y-103537202D01*
X216542857Y-103680059D01*
X216590476Y-103870535D01*
X216638095Y-103965773D01*
X216733333Y-104061011D01*
X216876190Y-104108630D01*
X217114285Y-104108630D01*
X216161904Y-103203869D02*
X216114285Y-103156250D01*
X216019047Y-103108630D01*
X215780952Y-103108630D01*
X215685714Y-103156250D01*
X215638095Y-103203869D01*
X215590476Y-103299107D01*
X215590476Y-103394345D01*
X215638095Y-103537202D01*
X216209523Y-104108630D01*
X215590476Y-104108630D01*
X215019047Y-103537202D02*
X215114285Y-103489583D01*
X215161904Y-103441964D01*
X215209523Y-103346726D01*
X215209523Y-103299107D01*
X215161904Y-103203869D01*
X215114285Y-103156250D01*
X215019047Y-103108630D01*
X214828571Y-103108630D01*
X214733333Y-103156250D01*
X214685714Y-103203869D01*
X214638095Y-103299107D01*
X214638095Y-103346726D01*
X214685714Y-103441964D01*
X214733333Y-103489583D01*
X214828571Y-103537202D01*
X215019047Y-103537202D01*
X215114285Y-103584821D01*
X215161904Y-103632440D01*
X215209523Y-103727678D01*
X215209523Y-103918154D01*
X215161904Y-104013392D01*
X215114285Y-104061011D01*
X215019047Y-104108630D01*
X214828571Y-104108630D01*
X214733333Y-104061011D01*
X214685714Y-104013392D01*
X214638095Y-103918154D01*
X214638095Y-103727678D01*
X214685714Y-103632440D01*
X214733333Y-103584821D01*
X214828571Y-103537202D01*
X219764285Y-106008630D02*
X220335714Y-106008630D01*
X220050000Y-106008630D02*
X220050000Y-105008630D01*
X220145238Y-105151488D01*
X220240476Y-105246726D01*
X220335714Y-105294345D01*
%TO.C,D3*%
X54713095Y-94496130D02*
X54713095Y-93496130D01*
X54475000Y-93496130D01*
X54332142Y-93543750D01*
X54236904Y-93638988D01*
X54189285Y-93734226D01*
X54141666Y-93924702D01*
X54141666Y-94067559D01*
X54189285Y-94258035D01*
X54236904Y-94353273D01*
X54332142Y-94448511D01*
X54475000Y-94496130D01*
X54713095Y-94496130D01*
X53808333Y-93496130D02*
X53189285Y-93496130D01*
X53522619Y-93877083D01*
X53379761Y-93877083D01*
X53284523Y-93924702D01*
X53236904Y-93972321D01*
X53189285Y-94067559D01*
X53189285Y-94305654D01*
X53236904Y-94400892D01*
X53284523Y-94448511D01*
X53379761Y-94496130D01*
X53665476Y-94496130D01*
X53760714Y-94448511D01*
X53808333Y-94400892D01*
%TO.C,D19*%
X223458630Y-91654464D02*
X222458630Y-91654464D01*
X222458630Y-91892559D01*
X222506250Y-92035416D01*
X222601488Y-92130654D01*
X222696726Y-92178273D01*
X222887202Y-92225892D01*
X223030059Y-92225892D01*
X223220535Y-92178273D01*
X223315773Y-92130654D01*
X223411011Y-92035416D01*
X223458630Y-91892559D01*
X223458630Y-91654464D01*
X223458630Y-93178273D02*
X223458630Y-92606845D01*
X223458630Y-92892559D02*
X222458630Y-92892559D01*
X222601488Y-92797321D01*
X222696726Y-92702083D01*
X222744345Y-92606845D01*
X223458630Y-93654464D02*
X223458630Y-93844940D01*
X223411011Y-93940178D01*
X223363392Y-93987797D01*
X223220535Y-94083035D01*
X223030059Y-94130654D01*
X222649107Y-94130654D01*
X222553869Y-94083035D01*
X222506250Y-94035416D01*
X222458630Y-93940178D01*
X222458630Y-93749702D01*
X222506250Y-93654464D01*
X222553869Y-93606845D01*
X222649107Y-93559226D01*
X222887202Y-93559226D01*
X222982440Y-93606845D01*
X223030059Y-93654464D01*
X223077678Y-93749702D01*
X223077678Y-93940178D01*
X223030059Y-94035416D01*
X222982440Y-94083035D01*
X222887202Y-94130654D01*
%TO.C,D9*%
X111558630Y-78636904D02*
X110558630Y-78636904D01*
X110558630Y-78875000D01*
X110606250Y-79017857D01*
X110701488Y-79113095D01*
X110796726Y-79160714D01*
X110987202Y-79208333D01*
X111130059Y-79208333D01*
X111320535Y-79160714D01*
X111415773Y-79113095D01*
X111511011Y-79017857D01*
X111558630Y-78875000D01*
X111558630Y-78636904D01*
X111558630Y-79684523D02*
X111558630Y-79875000D01*
X111511011Y-79970238D01*
X111463392Y-80017857D01*
X111320535Y-80113095D01*
X111130059Y-80160714D01*
X110749107Y-80160714D01*
X110653869Y-80113095D01*
X110606250Y-80065476D01*
X110558630Y-79970238D01*
X110558630Y-79779761D01*
X110606250Y-79684523D01*
X110653869Y-79636904D01*
X110749107Y-79589285D01*
X110987202Y-79589285D01*
X111082440Y-79636904D01*
X111130059Y-79684523D01*
X111177678Y-79779761D01*
X111177678Y-79970238D01*
X111130059Y-80065476D01*
X111082440Y-80113095D01*
X110987202Y-80160714D01*
%TO.C,D34*%
X179014285Y-115221130D02*
X179014285Y-114221130D01*
X178776190Y-114221130D01*
X178633333Y-114268750D01*
X178538095Y-114363988D01*
X178490476Y-114459226D01*
X178442857Y-114649702D01*
X178442857Y-114792559D01*
X178490476Y-114983035D01*
X178538095Y-115078273D01*
X178633333Y-115173511D01*
X178776190Y-115221130D01*
X179014285Y-115221130D01*
X178109523Y-114221130D02*
X177490476Y-114221130D01*
X177823809Y-114602083D01*
X177680952Y-114602083D01*
X177585714Y-114649702D01*
X177538095Y-114697321D01*
X177490476Y-114792559D01*
X177490476Y-115030654D01*
X177538095Y-115125892D01*
X177585714Y-115173511D01*
X177680952Y-115221130D01*
X177966666Y-115221130D01*
X178061904Y-115173511D01*
X178109523Y-115125892D01*
X176633333Y-114554464D02*
X176633333Y-115221130D01*
X176871428Y-114173511D02*
X177109523Y-114887797D01*
X176490476Y-114887797D01*
X181664285Y-117121130D02*
X182235714Y-117121130D01*
X181950000Y-117121130D02*
X181950000Y-116121130D01*
X182045238Y-116263988D01*
X182140476Y-116359226D01*
X182235714Y-116406845D01*
%TO.C,D26*%
X86145535Y-58864880D02*
X86145535Y-57864880D01*
X85907440Y-57864880D01*
X85764583Y-57912500D01*
X85669345Y-58007738D01*
X85621726Y-58102976D01*
X85574107Y-58293452D01*
X85574107Y-58436309D01*
X85621726Y-58626785D01*
X85669345Y-58722023D01*
X85764583Y-58817261D01*
X85907440Y-58864880D01*
X86145535Y-58864880D01*
X85193154Y-57960119D02*
X85145535Y-57912500D01*
X85050297Y-57864880D01*
X84812202Y-57864880D01*
X84716964Y-57912500D01*
X84669345Y-57960119D01*
X84621726Y-58055357D01*
X84621726Y-58150595D01*
X84669345Y-58293452D01*
X85240773Y-58864880D01*
X84621726Y-58864880D01*
X83764583Y-57864880D02*
X83955059Y-57864880D01*
X84050297Y-57912500D01*
X84097916Y-57960119D01*
X84193154Y-58102976D01*
X84240773Y-58293452D01*
X84240773Y-58674404D01*
X84193154Y-58769642D01*
X84145535Y-58817261D01*
X84050297Y-58864880D01*
X83859821Y-58864880D01*
X83764583Y-58817261D01*
X83716964Y-58769642D01*
X83669345Y-58674404D01*
X83669345Y-58436309D01*
X83716964Y-58341071D01*
X83764583Y-58293452D01*
X83859821Y-58245833D01*
X84050297Y-58245833D01*
X84145535Y-58293452D01*
X84193154Y-58341071D01*
X84240773Y-58436309D01*
X88795535Y-60764880D02*
X89366964Y-60764880D01*
X89081250Y-60764880D02*
X89081250Y-59764880D01*
X89176488Y-59907738D01*
X89271726Y-60002976D01*
X89366964Y-60050595D01*
%TO.C,D21*%
X248070535Y-79446130D02*
X248070535Y-78446130D01*
X247832440Y-78446130D01*
X247689583Y-78493750D01*
X247594345Y-78588988D01*
X247546726Y-78684226D01*
X247499107Y-78874702D01*
X247499107Y-79017559D01*
X247546726Y-79208035D01*
X247594345Y-79303273D01*
X247689583Y-79398511D01*
X247832440Y-79446130D01*
X248070535Y-79446130D01*
X247118154Y-78541369D02*
X247070535Y-78493750D01*
X246975297Y-78446130D01*
X246737202Y-78446130D01*
X246641964Y-78493750D01*
X246594345Y-78541369D01*
X246546726Y-78636607D01*
X246546726Y-78731845D01*
X246594345Y-78874702D01*
X247165773Y-79446130D01*
X246546726Y-79446130D01*
X245594345Y-79446130D02*
X246165773Y-79446130D01*
X245880059Y-79446130D02*
X245880059Y-78446130D01*
X245975297Y-78588988D01*
X246070535Y-78684226D01*
X246165773Y-78731845D01*
%TO.C,D7*%
X92813095Y-113546130D02*
X92813095Y-112546130D01*
X92575000Y-112546130D01*
X92432142Y-112593750D01*
X92336904Y-112688988D01*
X92289285Y-112784226D01*
X92241666Y-112974702D01*
X92241666Y-113117559D01*
X92289285Y-113308035D01*
X92336904Y-113403273D01*
X92432142Y-113498511D01*
X92575000Y-113546130D01*
X92813095Y-113546130D01*
X91908333Y-112546130D02*
X91241666Y-112546130D01*
X91670238Y-113546130D01*
%TO.C,D4*%
X73458630Y-54030654D02*
X72458630Y-54030654D01*
X72458630Y-54268750D01*
X72506250Y-54411607D01*
X72601488Y-54506845D01*
X72696726Y-54554464D01*
X72887202Y-54602083D01*
X73030059Y-54602083D01*
X73220535Y-54554464D01*
X73315773Y-54506845D01*
X73411011Y-54411607D01*
X73458630Y-54268750D01*
X73458630Y-54030654D01*
X72791964Y-55459226D02*
X73458630Y-55459226D01*
X72411011Y-55221130D02*
X73125297Y-54983035D01*
X73125297Y-55602083D01*
%TO.C,D20*%
X248070535Y-60396130D02*
X248070535Y-59396130D01*
X247832440Y-59396130D01*
X247689583Y-59443750D01*
X247594345Y-59538988D01*
X247546726Y-59634226D01*
X247499107Y-59824702D01*
X247499107Y-59967559D01*
X247546726Y-60158035D01*
X247594345Y-60253273D01*
X247689583Y-60348511D01*
X247832440Y-60396130D01*
X248070535Y-60396130D01*
X247118154Y-59491369D02*
X247070535Y-59443750D01*
X246975297Y-59396130D01*
X246737202Y-59396130D01*
X246641964Y-59443750D01*
X246594345Y-59491369D01*
X246546726Y-59586607D01*
X246546726Y-59681845D01*
X246594345Y-59824702D01*
X247165773Y-60396130D01*
X246546726Y-60396130D01*
X245927678Y-59396130D02*
X245832440Y-59396130D01*
X245737202Y-59443750D01*
X245689583Y-59491369D01*
X245641964Y-59586607D01*
X245594345Y-59777083D01*
X245594345Y-60015178D01*
X245641964Y-60205654D01*
X245689583Y-60300892D01*
X245737202Y-60348511D01*
X245832440Y-60396130D01*
X245927678Y-60396130D01*
X246022916Y-60348511D01*
X246070535Y-60300892D01*
X246118154Y-60205654D01*
X246165773Y-60015178D01*
X246165773Y-59777083D01*
X246118154Y-59586607D01*
X246070535Y-59491369D01*
X246022916Y-59443750D01*
X245927678Y-59396130D01*
%TO.C,D24*%
X58364285Y-98552380D02*
X58364285Y-97552380D01*
X58126190Y-97552380D01*
X57983333Y-97600000D01*
X57888095Y-97695238D01*
X57840476Y-97790476D01*
X57792857Y-97980952D01*
X57792857Y-98123809D01*
X57840476Y-98314285D01*
X57888095Y-98409523D01*
X57983333Y-98504761D01*
X58126190Y-98552380D01*
X58364285Y-98552380D01*
X57411904Y-97647619D02*
X57364285Y-97600000D01*
X57269047Y-97552380D01*
X57030952Y-97552380D01*
X56935714Y-97600000D01*
X56888095Y-97647619D01*
X56840476Y-97742857D01*
X56840476Y-97838095D01*
X56888095Y-97980952D01*
X57459523Y-98552380D01*
X56840476Y-98552380D01*
X55983333Y-97885714D02*
X55983333Y-98552380D01*
X56221428Y-97504761D02*
X56459523Y-98219047D01*
X55840476Y-98219047D01*
X61014285Y-100452380D02*
X61585714Y-100452380D01*
X61300000Y-100452380D02*
X61300000Y-99452380D01*
X61395238Y-99595238D01*
X61490476Y-99690476D01*
X61585714Y-99738095D01*
%TO.C,D13*%
X185377380Y-78160714D02*
X184377380Y-78160714D01*
X184377380Y-78398809D01*
X184425000Y-78541666D01*
X184520238Y-78636904D01*
X184615476Y-78684523D01*
X184805952Y-78732142D01*
X184948809Y-78732142D01*
X185139285Y-78684523D01*
X185234523Y-78636904D01*
X185329761Y-78541666D01*
X185377380Y-78398809D01*
X185377380Y-78160714D01*
X185377380Y-79684523D02*
X185377380Y-79113095D01*
X185377380Y-79398809D02*
X184377380Y-79398809D01*
X184520238Y-79303571D01*
X184615476Y-79208333D01*
X184663095Y-79113095D01*
X184377380Y-80017857D02*
X184377380Y-80636904D01*
X184758333Y-80303571D01*
X184758333Y-80446428D01*
X184805952Y-80541666D01*
X184853571Y-80589285D01*
X184948809Y-80636904D01*
X185186904Y-80636904D01*
X185282142Y-80589285D01*
X185329761Y-80541666D01*
X185377380Y-80446428D01*
X185377380Y-80160714D01*
X185329761Y-80065476D01*
X185282142Y-80017857D01*
%TO.C,D31*%
X217114285Y-58864880D02*
X217114285Y-57864880D01*
X216876190Y-57864880D01*
X216733333Y-57912500D01*
X216638095Y-58007738D01*
X216590476Y-58102976D01*
X216542857Y-58293452D01*
X216542857Y-58436309D01*
X216590476Y-58626785D01*
X216638095Y-58722023D01*
X216733333Y-58817261D01*
X216876190Y-58864880D01*
X217114285Y-58864880D01*
X216209523Y-57864880D02*
X215590476Y-57864880D01*
X215923809Y-58245833D01*
X215780952Y-58245833D01*
X215685714Y-58293452D01*
X215638095Y-58341071D01*
X215590476Y-58436309D01*
X215590476Y-58674404D01*
X215638095Y-58769642D01*
X215685714Y-58817261D01*
X215780952Y-58864880D01*
X216066666Y-58864880D01*
X216161904Y-58817261D01*
X216209523Y-58769642D01*
X214638095Y-58864880D02*
X215209523Y-58864880D01*
X214923809Y-58864880D02*
X214923809Y-57864880D01*
X215019047Y-58007738D01*
X215114285Y-58102976D01*
X215209523Y-58150595D01*
X219764285Y-60764880D02*
X220335714Y-60764880D01*
X220050000Y-60764880D02*
X220050000Y-59764880D01*
X220145238Y-59907738D01*
X220240476Y-60002976D01*
X220335714Y-60050595D01*
%TO.C,D6*%
X73458630Y-92130654D02*
X72458630Y-92130654D01*
X72458630Y-92368750D01*
X72506250Y-92511607D01*
X72601488Y-92606845D01*
X72696726Y-92654464D01*
X72887202Y-92702083D01*
X73030059Y-92702083D01*
X73220535Y-92654464D01*
X73315773Y-92606845D01*
X73411011Y-92511607D01*
X73458630Y-92368750D01*
X73458630Y-92130654D01*
X72458630Y-93559226D02*
X72458630Y-93368750D01*
X72506250Y-93273511D01*
X72553869Y-93225892D01*
X72696726Y-93130654D01*
X72887202Y-93083035D01*
X73268154Y-93083035D01*
X73363392Y-93130654D01*
X73411011Y-93178273D01*
X73458630Y-93273511D01*
X73458630Y-93463988D01*
X73411011Y-93559226D01*
X73363392Y-93606845D01*
X73268154Y-93654464D01*
X73030059Y-93654464D01*
X72934821Y-93606845D01*
X72887202Y-93559226D01*
X72839583Y-93463988D01*
X72839583Y-93273511D01*
X72887202Y-93178273D01*
X72934821Y-93130654D01*
X73030059Y-93083035D01*
%TO.C,D23*%
X86145535Y-104108630D02*
X86145535Y-103108630D01*
X85907440Y-103108630D01*
X85764583Y-103156250D01*
X85669345Y-103251488D01*
X85621726Y-103346726D01*
X85574107Y-103537202D01*
X85574107Y-103680059D01*
X85621726Y-103870535D01*
X85669345Y-103965773D01*
X85764583Y-104061011D01*
X85907440Y-104108630D01*
X86145535Y-104108630D01*
X85193154Y-103203869D02*
X85145535Y-103156250D01*
X85050297Y-103108630D01*
X84812202Y-103108630D01*
X84716964Y-103156250D01*
X84669345Y-103203869D01*
X84621726Y-103299107D01*
X84621726Y-103394345D01*
X84669345Y-103537202D01*
X85240773Y-104108630D01*
X84621726Y-104108630D01*
X84288392Y-103108630D02*
X83669345Y-103108630D01*
X84002678Y-103489583D01*
X83859821Y-103489583D01*
X83764583Y-103537202D01*
X83716964Y-103584821D01*
X83669345Y-103680059D01*
X83669345Y-103918154D01*
X83716964Y-104013392D01*
X83764583Y-104061011D01*
X83859821Y-104108630D01*
X84145535Y-104108630D01*
X84240773Y-104061011D01*
X84288392Y-104013392D01*
X88795535Y-106008630D02*
X89366964Y-106008630D01*
X89081250Y-106008630D02*
X89081250Y-105008630D01*
X89176488Y-105151488D01*
X89271726Y-105246726D01*
X89366964Y-105294345D01*
%TO.C,D14*%
X185377380Y-97210714D02*
X184377380Y-97210714D01*
X184377380Y-97448809D01*
X184425000Y-97591666D01*
X184520238Y-97686904D01*
X184615476Y-97734523D01*
X184805952Y-97782142D01*
X184948809Y-97782142D01*
X185139285Y-97734523D01*
X185234523Y-97686904D01*
X185329761Y-97591666D01*
X185377380Y-97448809D01*
X185377380Y-97210714D01*
X185377380Y-98734523D02*
X185377380Y-98163095D01*
X185377380Y-98448809D02*
X184377380Y-98448809D01*
X184520238Y-98353571D01*
X184615476Y-98258333D01*
X184663095Y-98163095D01*
X184710714Y-99591666D02*
X185377380Y-99591666D01*
X184329761Y-99353571D02*
X185044047Y-99115476D01*
X185044047Y-99734523D01*
%TO.C,R1*%
X121039880Y-88133333D02*
X120563690Y-87800000D01*
X121039880Y-87561904D02*
X120039880Y-87561904D01*
X120039880Y-87942857D01*
X120087500Y-88038095D01*
X120135119Y-88085714D01*
X120230357Y-88133333D01*
X120373214Y-88133333D01*
X120468452Y-88085714D01*
X120516071Y-88038095D01*
X120563690Y-87942857D01*
X120563690Y-87561904D01*
X121039880Y-89085714D02*
X121039880Y-88514285D01*
X121039880Y-88800000D02*
X120039880Y-88800000D01*
X120182738Y-88704761D01*
X120277976Y-88609523D01*
X120325595Y-88514285D01*
%TO.C,D8*%
X111558630Y-70699404D02*
X110558630Y-70699404D01*
X110558630Y-70937500D01*
X110606250Y-71080357D01*
X110701488Y-71175595D01*
X110796726Y-71223214D01*
X110987202Y-71270833D01*
X111130059Y-71270833D01*
X111320535Y-71223214D01*
X111415773Y-71175595D01*
X111511011Y-71080357D01*
X111558630Y-70937500D01*
X111558630Y-70699404D01*
X110987202Y-71842261D02*
X110939583Y-71747023D01*
X110891964Y-71699404D01*
X110796726Y-71651785D01*
X110749107Y-71651785D01*
X110653869Y-71699404D01*
X110606250Y-71747023D01*
X110558630Y-71842261D01*
X110558630Y-72032738D01*
X110606250Y-72127976D01*
X110653869Y-72175595D01*
X110749107Y-72223214D01*
X110796726Y-72223214D01*
X110891964Y-72175595D01*
X110939583Y-72127976D01*
X110987202Y-72032738D01*
X110987202Y-71842261D01*
X111034821Y-71747023D01*
X111082440Y-71699404D01*
X111177678Y-71651785D01*
X111368154Y-71651785D01*
X111463392Y-71699404D01*
X111511011Y-71747023D01*
X111558630Y-71842261D01*
X111558630Y-72032738D01*
X111511011Y-72127976D01*
X111463392Y-72175595D01*
X111368154Y-72223214D01*
X111177678Y-72223214D01*
X111082440Y-72175595D01*
X111034821Y-72127976D01*
X110987202Y-72032738D01*
D12*
%TO.C,D2*%
X56225000Y-75993750D02*
X56225000Y-77993750D01*
X56225000Y-75993750D02*
X52325000Y-75993750D01*
X56225000Y-77993750D02*
X52325000Y-77993750D01*
%TO.C,D33*%
X126681250Y-115518750D02*
X119381250Y-115518750D01*
X126681250Y-121018750D02*
X119381250Y-121018750D01*
X119381250Y-121018750D02*
X119381250Y-119868750D01*
%TO.C,D27*%
X126681250Y-74187500D02*
X119381250Y-74187500D01*
X119381250Y-74187500D02*
X119381250Y-73037500D01*
X126681250Y-68687500D02*
X119381250Y-68687500D01*
%TO.C,D22*%
X244668750Y-97043750D02*
X244668750Y-95043750D01*
X244668750Y-95043750D02*
X248568750Y-95043750D01*
X244668750Y-97043750D02*
X248568750Y-97043750D01*
%TO.C,D29*%
X247331250Y-104350000D02*
X240031250Y-104350000D01*
X247331250Y-98850000D02*
X240031250Y-98850000D01*
X240031250Y-104350000D02*
X240031250Y-103200000D01*
%TO.C,D5*%
X73846250Y-74468750D02*
X73846250Y-72793750D01*
X73846250Y-74468750D02*
X73846250Y-75118750D01*
X76966250Y-74468750D02*
X76966250Y-73818750D01*
X76966250Y-74468750D02*
X76966250Y-75118750D01*
D13*
%TO.C,U1*%
X99292410Y-49059560D02*
X99292410Y-46392560D01*
D14*
X112718850Y-46476380D02*
X113389410Y-47146940D01*
D13*
X101070410Y-53126100D02*
X101070410Y-50456560D01*
X107039410Y-66839560D02*
X107039410Y-64299560D01*
X109706410Y-46392560D02*
X107928410Y-46392560D01*
D14*
X113389410Y-47146940D02*
X113389410Y-67474560D01*
D13*
X107039410Y-49694560D02*
X101959410Y-49694560D01*
D14*
X99995990Y-45051440D02*
X99995990Y-52404740D01*
D13*
X99292410Y-53126100D02*
X99292410Y-50456560D01*
X107928410Y-49059560D02*
X107928410Y-46392560D01*
X107039410Y-47154560D02*
X101959410Y-47154560D01*
X107039410Y-49694560D02*
X107039410Y-47154560D01*
X101070410Y-49059560D02*
X101070410Y-46392560D01*
D14*
X108990130Y-45051440D02*
X99995990Y-45051440D01*
D13*
X101070410Y-46392560D02*
X99292410Y-46392560D01*
X109706410Y-49059560D02*
X109706410Y-46392560D01*
X101324410Y-66839560D02*
X101324410Y-64299560D01*
X109706410Y-50456560D02*
X107928410Y-50456560D01*
X101070410Y-49059560D02*
X99292410Y-49059560D01*
D14*
X95591630Y-46476380D02*
X112718850Y-46476380D01*
D13*
X101959410Y-49694560D02*
X101959410Y-47154560D01*
X101070410Y-53126100D02*
X99292410Y-53126100D01*
X107039410Y-64299560D02*
X101324410Y-64299560D01*
X107039410Y-66839560D02*
X101324410Y-66839560D01*
X109706410Y-53126100D02*
X107928410Y-53126100D01*
X107928410Y-53126100D02*
X107928410Y-50456560D01*
X109706410Y-49059560D02*
X107928410Y-49059560D01*
D14*
X99995990Y-52404740D02*
X108995210Y-52404740D01*
D13*
X101070410Y-50456560D02*
X99292410Y-50456560D01*
D14*
X95591630Y-67474560D02*
X95591630Y-46476380D01*
D13*
X109706410Y-53126100D02*
X109706410Y-50456560D01*
D14*
X108995210Y-52404740D02*
X108995210Y-45051440D01*
X113389410Y-67474560D02*
X95591630Y-67474560D01*
D15*
X114405410Y-49313560D02*
G75*
G03*
X114405410Y-49313560I-127000J0D01*
G01*
D12*
%TO.C,D30*%
X247331250Y-66250000D02*
X240031250Y-66250000D01*
X247331250Y-60750000D02*
X240031250Y-60750000D01*
X240031250Y-66250000D02*
X240031250Y-65100000D01*
%TO.C,D18*%
X226966250Y-74468750D02*
X226966250Y-73818750D01*
X226966250Y-74468750D02*
X226966250Y-75118750D01*
X223846250Y-74468750D02*
X223846250Y-72793750D01*
X223846250Y-74468750D02*
X223846250Y-75118750D01*
%TO.C,R2*%
X179328750Y-88872936D02*
X179328750Y-89327064D01*
X177858750Y-88872936D02*
X177858750Y-89327064D01*
%TO.C,D15*%
X185765000Y-123825000D02*
X185765000Y-122150000D01*
X188885000Y-123825000D02*
X188885000Y-123175000D01*
X188885000Y-123825000D02*
X188885000Y-124475000D01*
X185765000Y-123825000D02*
X185765000Y-124475000D01*
%TO.C,D12*%
X188885000Y-71437500D02*
X188885000Y-70787500D01*
X185765000Y-71437500D02*
X185765000Y-72087500D01*
X188885000Y-71437500D02*
X188885000Y-72087500D01*
X185765000Y-71437500D02*
X185765000Y-69762500D01*
%TO.C,D17*%
X223846250Y-54768750D02*
X223846250Y-55418750D01*
X223846250Y-54768750D02*
X223846250Y-53093750D01*
X226966250Y-54768750D02*
X226966250Y-54118750D01*
X226966250Y-54768750D02*
X226966250Y-55418750D01*
%TO.C,D32*%
X181450000Y-74187500D02*
X174150000Y-74187500D01*
X181450000Y-68687500D02*
X174150000Y-68687500D01*
X174150000Y-74187500D02*
X174150000Y-73037500D01*
%TO.C,D25*%
X60800000Y-66250000D02*
X53500000Y-66250000D01*
X60800000Y-60750000D02*
X53500000Y-60750000D01*
X53500000Y-66250000D02*
X53500000Y-65100000D01*
%TO.C,D1*%
X56225000Y-56943750D02*
X56225000Y-58943750D01*
X56225000Y-58943750D02*
X52325000Y-58943750D01*
X56225000Y-56943750D02*
X52325000Y-56943750D01*
%TO.C,D16*%
X206506250Y-116093750D02*
X210406250Y-116093750D01*
X206506250Y-114093750D02*
X210406250Y-114093750D01*
X206506250Y-116093750D02*
X206506250Y-114093750D01*
%TO.C,D10*%
X115066250Y-98425000D02*
X115066250Y-97775000D01*
X111946250Y-98425000D02*
X111946250Y-99075000D01*
X111946250Y-98425000D02*
X111946250Y-96750000D01*
X115066250Y-98425000D02*
X115066250Y-99075000D01*
%TO.C,D11*%
X111946250Y-123825000D02*
X111946250Y-122150000D01*
X115066250Y-123825000D02*
X115066250Y-124475000D01*
X111946250Y-123825000D02*
X111946250Y-124475000D01*
X115066250Y-123825000D02*
X115066250Y-123175000D01*
D13*
%TO.C,U2*%
X199114410Y-47154560D02*
X194034410Y-47154560D01*
X193145410Y-50456560D02*
X191367410Y-50456560D01*
X193145410Y-53126100D02*
X191367410Y-53126100D01*
X201781410Y-50456560D02*
X200003410Y-50456560D01*
X201781410Y-53126100D02*
X201781410Y-50456560D01*
D14*
X205464410Y-67474560D02*
X187666630Y-67474560D01*
D13*
X201781410Y-46392560D02*
X200003410Y-46392560D01*
X194034410Y-49694560D02*
X194034410Y-47154560D01*
D14*
X192070990Y-52404740D02*
X201070210Y-52404740D01*
D13*
X200003410Y-49059560D02*
X200003410Y-46392560D01*
X201781410Y-49059560D02*
X200003410Y-49059560D01*
X193145410Y-46392560D02*
X191367410Y-46392560D01*
X199114410Y-66839560D02*
X199114410Y-64299560D01*
X193399410Y-66839560D02*
X193399410Y-64299560D01*
X191367410Y-49059560D02*
X191367410Y-46392560D01*
X199114410Y-49694560D02*
X194034410Y-49694560D01*
X200003410Y-53126100D02*
X200003410Y-50456560D01*
X193145410Y-53126100D02*
X193145410Y-50456560D01*
X199114410Y-64299560D02*
X193399410Y-64299560D01*
X201781410Y-49059560D02*
X201781410Y-46392560D01*
X193145410Y-49059560D02*
X191367410Y-49059560D01*
X201781410Y-53126100D02*
X200003410Y-53126100D01*
X199114410Y-49694560D02*
X199114410Y-47154560D01*
X199114410Y-66839560D02*
X193399410Y-66839560D01*
D14*
X187666630Y-46476380D02*
X204793850Y-46476380D01*
D13*
X191367410Y-53126100D02*
X191367410Y-50456560D01*
D14*
X201065130Y-45051440D02*
X192070990Y-45051440D01*
X201070210Y-52404740D02*
X201070210Y-45051440D01*
X204793850Y-46476380D02*
X205464410Y-47146940D01*
X187666630Y-67474560D02*
X187666630Y-46476380D01*
D13*
X193145410Y-49059560D02*
X193145410Y-46392560D01*
D14*
X192070990Y-45051440D02*
X192070990Y-52404740D01*
X205464410Y-47146940D02*
X205464410Y-67474560D01*
D15*
X206480410Y-49313560D02*
G75*
G03*
X206480410Y-49313560I-127000J0D01*
G01*
D12*
%TO.C,D28*%
X219550000Y-109906250D02*
X212250000Y-109906250D01*
X219550000Y-104406250D02*
X212250000Y-104406250D01*
X212250000Y-109906250D02*
X212250000Y-108756250D01*
%TO.C,D3*%
X56225000Y-97043750D02*
X52325000Y-97043750D01*
X56225000Y-95043750D02*
X52325000Y-95043750D01*
X56225000Y-95043750D02*
X56225000Y-97043750D01*
%TO.C,D19*%
X226966250Y-92868750D02*
X226966250Y-92218750D01*
X223846250Y-92868750D02*
X223846250Y-91193750D01*
X223846250Y-92868750D02*
X223846250Y-93518750D01*
X226966250Y-92868750D02*
X226966250Y-93518750D01*
%TO.C,D9*%
X115066250Y-79375000D02*
X115066250Y-80025000D01*
X115066250Y-79375000D02*
X115066250Y-78725000D01*
X111946250Y-79375000D02*
X111946250Y-80025000D01*
X111946250Y-79375000D02*
X111946250Y-77700000D01*
%TO.C,D34*%
X181450000Y-115518750D02*
X174150000Y-115518750D01*
X181450000Y-121018750D02*
X174150000Y-121018750D01*
X174150000Y-121018750D02*
X174150000Y-119868750D01*
%TO.C,D26*%
X88581250Y-59162500D02*
X81281250Y-59162500D01*
X81281250Y-64662500D02*
X81281250Y-63512500D01*
X88581250Y-64662500D02*
X81281250Y-64662500D01*
%TO.C,D21*%
X244606250Y-77993750D02*
X248506250Y-77993750D01*
X244606250Y-75993750D02*
X248506250Y-75993750D01*
X244606250Y-77993750D02*
X244606250Y-75993750D01*
%TO.C,D7*%
X94325000Y-114093750D02*
X94325000Y-116093750D01*
X94325000Y-116093750D02*
X90425000Y-116093750D01*
X94325000Y-114093750D02*
X90425000Y-114093750D01*
%TO.C,D4*%
X76966250Y-54768750D02*
X76966250Y-55418750D01*
X73846250Y-54768750D02*
X73846250Y-53093750D01*
X76966250Y-54768750D02*
X76966250Y-54118750D01*
X73846250Y-54768750D02*
X73846250Y-55418750D01*
%TO.C,D20*%
X244606250Y-58943750D02*
X244606250Y-56943750D01*
X244606250Y-56943750D02*
X248506250Y-56943750D01*
X244606250Y-58943750D02*
X248506250Y-58943750D01*
%TO.C,D24*%
X60800000Y-104350000D02*
X53500000Y-104350000D01*
X60800000Y-98850000D02*
X53500000Y-98850000D01*
X53500000Y-104350000D02*
X53500000Y-103200000D01*
%TO.C,D13*%
X188885000Y-79375000D02*
X188885000Y-78725000D01*
X185765000Y-79375000D02*
X185765000Y-77700000D01*
X185765000Y-79375000D02*
X185765000Y-80025000D01*
X188885000Y-79375000D02*
X188885000Y-80025000D01*
%TO.C,D31*%
X219550000Y-59162500D02*
X212250000Y-59162500D01*
X219550000Y-64662500D02*
X212250000Y-64662500D01*
X212250000Y-64662500D02*
X212250000Y-63512500D01*
%TO.C,D6*%
X73846250Y-92868750D02*
X73846250Y-91193750D01*
X76966250Y-92868750D02*
X76966250Y-92218750D01*
X76966250Y-92868750D02*
X76966250Y-93518750D01*
X73846250Y-92868750D02*
X73846250Y-93518750D01*
%TO.C,D23*%
X81281250Y-109906250D02*
X81281250Y-108756250D01*
X88581250Y-104406250D02*
X81281250Y-104406250D01*
X88581250Y-109906250D02*
X81281250Y-109906250D01*
%TO.C,D14*%
X188885000Y-98425000D02*
X188885000Y-99075000D01*
X185765000Y-98425000D02*
X185765000Y-99075000D01*
X185765000Y-98425000D02*
X185765000Y-96750000D01*
X188885000Y-98425000D02*
X188885000Y-97775000D01*
%TO.C,R1*%
X121502500Y-88072936D02*
X121502500Y-88527064D01*
X122972500Y-88072936D02*
X122972500Y-88527064D01*
%TO.C,D8*%
X115066250Y-71437500D02*
X115066250Y-70787500D01*
X111946250Y-71437500D02*
X111946250Y-72087500D01*
X111946250Y-71437500D02*
X111946250Y-69762500D01*
X115066250Y-71437500D02*
X115066250Y-72087500D01*
%TD*%
M02*
