%TF.GenerationSoftware,KiCad,Pcbnew,(5.99.0-13276-g0b59246279)*%
%TF.CreationDate,2021-11-22T01:28:44-07:00*%
%TF.ProjectId,sui,7375692e-6b69-4636-9164-5f7063625858,1*%
%TF.SameCoordinates,Original*%
%TF.FileFunction,Soldermask,Top*%
%TF.FilePolarity,Negative*%
%FSLAX46Y46*%
G04 Gerber Fmt 4.6, Leading zero omitted, Abs format (unit mm)*
G04 Created by KiCad (PCBNEW (5.99.0-13276-g0b59246279)) date 2021-11-22 01:28:44*
%MOMM*%
%LPD*%
G01*
G04 APERTURE LIST*
%ADD10C,3.987800*%
%ADD11C,1.750000*%
%ADD12C,0.700000*%
%ADD13O,1.700000X0.900000*%
%ADD14O,2.400000X0.900000*%
G04 APERTURE END LIST*
D10*
%TO.C,MX13*%
X103981250Y-96837500D03*
D11*
X109061250Y-96837500D03*
X98901250Y-96837500D03*
%TD*%
D10*
%TO.C,MX30*%
X215900000Y-120650000D03*
D11*
X210820000Y-120650000D03*
X220980000Y-120650000D03*
%TD*%
%TO.C,MX34*%
X259080000Y-63500000D03*
X248920000Y-63500000D03*
D10*
X254000000Y-63500000D03*
%TD*%
D11*
%TO.C,MX15*%
X128111250Y-63500000D03*
X117951250Y-63500000D03*
D10*
X123031250Y-63500000D03*
%TD*%
D11*
%TO.C,MX11*%
X98901250Y-58737500D03*
D10*
X103981250Y-58737500D03*
D11*
X109061250Y-58737500D03*
%TD*%
%TO.C,MX29*%
X210820000Y-92075000D03*
D10*
X215900000Y-92075000D03*
D11*
X220980000Y-92075000D03*
%TD*%
%TO.C,MX2*%
X41751250Y-82550000D03*
D10*
X46831250Y-82550000D03*
D11*
X51911250Y-82550000D03*
%TD*%
%TO.C,MX18*%
X134560852Y-125789148D03*
D10*
X130968750Y-129381250D03*
D11*
X127376648Y-132973352D03*
%TD*%
%TO.C,MX7*%
X79851250Y-53975000D03*
X90011250Y-53975000D03*
D10*
X84931250Y-53975000D03*
%TD*%
D11*
%TO.C,MX8*%
X79851250Y-73025000D03*
D10*
X84931250Y-73025000D03*
D11*
X90011250Y-73025000D03*
%TD*%
D10*
%TO.C,MX28*%
X215900000Y-73025000D03*
D11*
X210820000Y-73025000D03*
X220980000Y-73025000D03*
%TD*%
%TO.C,MX36*%
X259080000Y-101600000D03*
D10*
X254000000Y-101600000D03*
D11*
X248920000Y-101600000D03*
%TD*%
%TO.C,MX1*%
X41751250Y-63500000D03*
X51911250Y-63500000D03*
D10*
X46831250Y-63500000D03*
%TD*%
D12*
%TO.C,J2*%
X175475000Y-86718750D03*
X175475000Y-87568750D03*
X175475000Y-88418750D03*
X175475000Y-89268750D03*
X175475000Y-90118750D03*
X175475000Y-90968750D03*
X175475000Y-91818750D03*
X175475000Y-92668750D03*
X174125000Y-92668750D03*
X174125000Y-91818750D03*
X174125000Y-90968750D03*
X174125000Y-90118750D03*
X174125000Y-89268750D03*
X174125000Y-88418750D03*
X174125000Y-87568750D03*
X174125000Y-86718750D03*
D13*
X171115000Y-85368750D03*
X171115000Y-94018750D03*
D14*
X174495000Y-85368750D03*
X174495000Y-94018750D03*
%TD*%
D10*
%TO.C,MX27*%
X215900000Y-53975000D03*
D11*
X210820000Y-53975000D03*
X220980000Y-53975000D03*
%TD*%
%TO.C,MX5*%
X70961250Y-77787500D03*
X60801250Y-77787500D03*
D10*
X65881250Y-77787500D03*
%TD*%
D11*
%TO.C,MX9*%
X79851250Y-92075000D03*
D10*
X84931250Y-92075000D03*
D11*
X90011250Y-92075000D03*
%TD*%
%TO.C,MX24*%
X191770000Y-77787500D03*
X201930000Y-77787500D03*
D10*
X196850000Y-77787500D03*
%TD*%
%TO.C,MX22*%
X169862500Y-129381250D03*
D11*
X166270398Y-125789148D03*
X173454602Y-132973352D03*
%TD*%
D10*
%TO.C,MX3*%
X46831250Y-101600000D03*
D11*
X41751250Y-101600000D03*
X51911250Y-101600000D03*
%TD*%
%TO.C,MX33*%
X240030000Y-96837500D03*
D10*
X234950000Y-96837500D03*
D11*
X229870000Y-96837500D03*
%TD*%
D10*
%TO.C,MX6*%
X65881250Y-96837500D03*
D11*
X70961250Y-96837500D03*
X60801250Y-96837500D03*
%TD*%
D10*
%TO.C,MX35*%
X254000000Y-82550000D03*
D11*
X248920000Y-82550000D03*
X259080000Y-82550000D03*
%TD*%
D10*
%TO.C,MX32*%
X234950000Y-77787500D03*
D11*
X240030000Y-77787500D03*
X229870000Y-77787500D03*
%TD*%
%TO.C,MX31*%
X229870000Y-58737500D03*
D10*
X234950000Y-58737500D03*
D11*
X240030000Y-58737500D03*
%TD*%
D10*
%TO.C,MX19*%
X177800000Y-63500000D03*
D11*
X182880000Y-63500000D03*
X172720000Y-63500000D03*
%TD*%
D10*
%TO.C,MX23*%
X196850000Y-58737500D03*
D11*
X201930000Y-58737500D03*
X191770000Y-58737500D03*
%TD*%
%TO.C,MX21*%
X182880000Y-101600000D03*
X172720000Y-101600000D03*
D10*
X177800000Y-101600000D03*
%TD*%
D12*
%TO.C,J1*%
X125356250Y-92668750D03*
X125356250Y-91818750D03*
X125356250Y-90968750D03*
X125356250Y-90118750D03*
X125356250Y-89268750D03*
X125356250Y-88418750D03*
X125356250Y-87568750D03*
X125356250Y-86718750D03*
X126706250Y-86718750D03*
X126706250Y-87568750D03*
X126706250Y-88418750D03*
X126706250Y-89268750D03*
X126706250Y-90118750D03*
X126706250Y-90968750D03*
X126706250Y-91818750D03*
X126706250Y-92668750D03*
D13*
X129716250Y-94018750D03*
X129716250Y-85368750D03*
D14*
X126336250Y-85368750D03*
X126336250Y-94018750D03*
%TD*%
D11*
%TO.C,MX14*%
X98901250Y-125412500D03*
D10*
X103981250Y-125412500D03*
D11*
X109061250Y-125412500D03*
%TD*%
D10*
%TO.C,MX12*%
X103981250Y-77787500D03*
D11*
X98901250Y-77787500D03*
X109061250Y-77787500D03*
%TD*%
%TO.C,MX16*%
X117951250Y-82550000D03*
X128111250Y-82550000D03*
D10*
X123031250Y-82550000D03*
%TD*%
D11*
%TO.C,MX25*%
X191770000Y-96837500D03*
D10*
X196850000Y-96837500D03*
D11*
X201930000Y-96837500D03*
%TD*%
D10*
%TO.C,MX10*%
X84931250Y-120650000D03*
D11*
X79851250Y-120650000D03*
X90011250Y-120650000D03*
%TD*%
%TO.C,MX4*%
X60801250Y-58737500D03*
D10*
X65881250Y-58737500D03*
D11*
X70961250Y-58737500D03*
%TD*%
D10*
%TO.C,MX20*%
X177800000Y-82550000D03*
D11*
X172720000Y-82550000D03*
X182880000Y-82550000D03*
%TD*%
%TO.C,MX26*%
X201930000Y-125412500D03*
X191770000Y-125412500D03*
D10*
X196850000Y-125412500D03*
%TD*%
%TO.C,MX17*%
X123031250Y-101600000D03*
D11*
X128111250Y-101600000D03*
X117951250Y-101600000D03*
%TD*%
M02*
