%TF.GenerationSoftware,KiCad,Pcbnew,(5.99.0-13276-g0b59246279)*%
%TF.CreationDate,2021-11-22T01:28:44-07:00*%
%TF.ProjectId,sui,7375692e-6b69-4636-9164-5f7063625858,1*%
%TF.SameCoordinates,Original*%
%TF.FileFunction,Legend,Top*%
%TF.FilePolarity,Positive*%
%FSLAX46Y46*%
G04 Gerber Fmt 4.6, Leading zero omitted, Abs format (unit mm)*
G04 Created by KiCad (PCBNEW (5.99.0-13276-g0b59246279)) date 2021-11-22 01:28:44*
%MOMM*%
%LPD*%
G01*
G04 APERTURE LIST*
%ADD10C,0.150000*%
%ADD11C,0.120000*%
G04 APERTURE END LIST*
D10*
%TO.C,J2*%
X176727380Y-90027083D02*
X177441666Y-90027083D01*
X177584523Y-90074702D01*
X177679761Y-90169940D01*
X177727380Y-90312797D01*
X177727380Y-90408035D01*
X176822619Y-89598511D02*
X176775000Y-89550892D01*
X176727380Y-89455654D01*
X176727380Y-89217559D01*
X176775000Y-89122321D01*
X176822619Y-89074702D01*
X176917857Y-89027083D01*
X177013095Y-89027083D01*
X177155952Y-89074702D01*
X177727380Y-89646130D01*
X177727380Y-89027083D01*
%TO.C,J1*%
X123008630Y-90027083D02*
X123722916Y-90027083D01*
X123865773Y-90074702D01*
X123961011Y-90169940D01*
X124008630Y-90312797D01*
X124008630Y-90408035D01*
X124008630Y-89027083D02*
X124008630Y-89598511D01*
X124008630Y-89312797D02*
X123008630Y-89312797D01*
X123151488Y-89408035D01*
X123246726Y-89503273D01*
X123294345Y-89598511D01*
D11*
%TO.C,J2*%
X169475000Y-94288750D02*
X166745000Y-94288750D01*
X166745000Y-85098750D02*
X166745000Y-94288750D01*
X176155000Y-85218750D02*
X176155000Y-94168750D01*
X173075000Y-85098750D02*
X172175000Y-85098750D01*
X169475000Y-85098750D02*
X166745000Y-85098750D01*
X173075000Y-94288750D02*
X172175000Y-94288750D01*
%TO.C,J1*%
X127756250Y-85098750D02*
X128656250Y-85098750D01*
X131356250Y-94288750D02*
X134086250Y-94288750D01*
X134086250Y-94288750D02*
X134086250Y-85098750D01*
X124676250Y-94168750D02*
X124676250Y-85218750D01*
X127756250Y-94288750D02*
X128656250Y-94288750D01*
X131356250Y-85098750D02*
X134086250Y-85098750D01*
%TD*%
M02*
