M48
; DRILL file {KiCad (5.99.0-13276-g0b59246279)} date Mon Nov 22 01:28:58 2021
; FORMAT={-:-/ absolute / inch / decimal}
; #@! TF.CreationDate,2021-11-22T01:28:58-07:00
; #@! TF.GenerationSoftware,Kicad,Pcbnew,(5.99.0-13276-g0b59246279)
; #@! TF.FileFunction,NonPlated,1,2,NPTH
FMAT,2
INCH
; #@! TA.AperFunction,NonPlated,NPTH,ComponentDrill
T1C0.0689
; #@! TA.AperFunction,NonPlated,NPTH,ComponentDrill
T2C0.1570
%
G90
G05
T1
X1.6438Y-2.5
X1.6438Y-3.25
X1.6438Y-4.0
X2.0437Y-2.5
X2.0437Y-3.25
X2.0437Y-4.0
X2.3937Y-2.3125
X2.3937Y-3.0625
X2.3937Y-3.8125
X2.7937Y-2.3125
X2.7937Y-3.0625
X2.7937Y-3.8125
X3.1437Y-2.125
X3.1437Y-2.875
X3.1437Y-3.625
X3.1437Y-4.75
X3.5437Y-2.125
X3.5437Y-2.875
X3.5437Y-3.625
X3.5437Y-4.75
X3.8937Y-2.3125
X3.8937Y-3.0625
X3.8937Y-3.8125
X3.8937Y-4.9375
X4.2938Y-2.3125
X4.2938Y-3.0625
X4.2938Y-3.8125
X4.2938Y-4.9375
X4.6437Y-2.5
X4.6437Y-3.25
X4.6437Y-4.0
X5.0148Y-5.2352
X5.0438Y-2.5
X5.0438Y-3.25
X5.0438Y-4.0
X5.2977Y-4.9523
X6.5461Y-4.9523
X6.8Y-2.5
X6.8Y-3.25
X6.8Y-4.0
X6.8289Y-5.2352
X7.2Y-2.5
X7.2Y-3.25
X7.2Y-4.0
X7.55Y-2.3125
X7.55Y-3.0625
X7.55Y-3.8125
X7.55Y-4.9375
X7.95Y-2.3125
X7.95Y-3.0625
X7.95Y-3.8125
X7.95Y-4.9375
X8.3Y-2.125
X8.3Y-2.875
X8.3Y-3.625
X8.3Y-4.75
X8.7Y-2.125
X8.7Y-2.875
X8.7Y-3.625
X8.7Y-4.75
X9.05Y-2.3125
X9.05Y-3.0625
X9.05Y-3.8125
X9.45Y-2.3125
X9.45Y-3.0625
X9.45Y-3.8125
X9.8Y-2.5
X9.8Y-3.25
X9.8Y-4.0
X10.2Y-2.5
X10.2Y-3.25
X10.2Y-4.0
T2
X1.8438Y-2.5
X1.8438Y-3.25
X1.8438Y-4.0
X2.5938Y-2.3125
X2.5938Y-3.0625
X2.5938Y-3.8125
X3.3438Y-2.125
X3.3438Y-2.875
X3.3438Y-3.625
X3.3438Y-4.75
X4.0938Y-2.3125
X4.0938Y-3.0625
X4.0938Y-3.8125
X4.0938Y-4.9375
X4.8438Y-2.5
X4.8438Y-3.25
X4.8438Y-4.0
X5.1562Y-5.0938
X6.6875Y-5.0938
X7.0Y-2.5
X7.0Y-3.25
X7.0Y-4.0
X7.75Y-2.3125
X7.75Y-3.0625
X7.75Y-3.8125
X7.75Y-4.9375
X8.5Y-2.125
X8.5Y-2.875
X8.5Y-3.625
X8.5Y-4.75
X9.25Y-2.3125
X9.25Y-3.0625
X9.25Y-3.8125
X10.0Y-2.5
X10.0Y-3.25
X10.0Y-4.0
T0
M30
