M48
; DRILL file {KiCad (5.99.0-13276-g0b59246279)} date Mon Nov 22 01:28:58 2021
; FORMAT={-:-/ absolute / inch / decimal}
; #@! TF.CreationDate,2021-11-22T01:28:58-07:00
; #@! TF.GenerationSoftware,Kicad,Pcbnew,(5.99.0-13276-g0b59246279)
; #@! TF.FileFunction,Plated,1,2,PTH
FMAT,2
INCH
; #@! TA.AperFunction,Plated,PTH,ViaDrill
T1C0.0157
; #@! TA.AperFunction,Plated,PTH,ComponentDrill
T2C0.0157
; #@! TA.AperFunction,Plated,PTH,ComponentDrill
T3C0.0236
; #@! TA.AperFunction,Plated,PTH,ComponentDrill
T4C0.0579
%
G90
G05
T1
X2.3952Y-2.4375
X2.3952Y-3.9375
X2.935Y-2.8327
X2.9688Y-3.2089
X3.185Y-2.4154
X3.1855Y-2.5005
X3.4887Y-2.3745
X3.4887Y-4.155
X3.561Y-2.5039
X3.6024Y-2.5374
X3.6319Y-2.4331
X3.6693Y-2.4665
X3.7126Y-1.9429
X4.2116Y-2.5856
X4.2539Y-2.7697
X4.2697Y-1.8573
X4.3091Y-1.8406
X4.3659Y-2.8566
X4.3681Y-2.7697
X4.4311Y-1.811
X4.4688Y-4.7291
X4.5315Y-2.9744
X4.5512Y-2.2441
X4.5817Y-2.5433
X4.5817Y-3.0915
X4.813Y-3.4016
X4.9902Y-2.749
X4.9902Y-4.5925
X7.0315Y-3.4252
X7.1602Y-4.5925
X7.1614Y-2.75
X7.3071Y-2.3445
X7.3386Y-2.7185
X7.375Y-3.5728
X7.5217Y-1.9429
X7.7392Y-2.5856
X8.002Y-2.6063
X8.0157Y-3.1988
X8.0906Y-3.1988
X8.1142Y-2.6063
X8.1535Y-2.3445
X8.1535Y-4.4832
X8.2146Y-2.3898
X8.2146Y-2.6024
X8.4547Y-2.2598
X8.6602Y-2.374
X8.6602Y-4.1555
X8.7441Y-2.4764
X8.7657Y-2.2421
X9.5492Y-3.0315
X9.5551Y-3.7815
X9.6181Y-3.7815
X9.6184Y-3.0312
X9.7547Y-2.437
X9.7547Y-3.937
T2
X4.9353Y-3.4141
X4.9353Y-3.4476
X4.9353Y-3.4811
X4.9353Y-3.5145
X4.9353Y-3.548
X4.9353Y-3.5814
X4.9353Y-3.6149
X4.9353Y-3.6484
X4.9884Y-3.4141
X4.9884Y-3.4476
X4.9884Y-3.4811
X4.9884Y-3.5145
X4.9884Y-3.548
X4.9884Y-3.5814
X4.9884Y-3.6149
X4.9884Y-3.6484
X6.8553Y-3.4141
X6.8553Y-3.4476
X6.8553Y-3.4811
X6.8553Y-3.5145
X6.8553Y-3.548
X6.8553Y-3.5814
X6.8553Y-3.6149
X6.8553Y-3.6484
X6.9085Y-3.4141
X6.9085Y-3.4476
X6.9085Y-3.4811
X6.9085Y-3.5145
X6.9085Y-3.548
X6.9085Y-3.5814
X6.9085Y-3.6149
X6.9085Y-3.6484
T4
X1.6937Y-2.4
X1.6937Y-3.15
X1.6937Y-3.9
X1.7453Y-2.3425
X1.7453Y-3.0925
X1.7453Y-3.8425
X1.9422Y-2.3228
X1.9422Y-3.0728
X1.9422Y-3.8228
X1.9437Y-2.3
X1.9437Y-3.05
X1.9437Y-3.8
X2.4438Y-2.2125
X2.4438Y-2.9625
X2.4438Y-3.7125
X2.4953Y-2.155
X2.4953Y-2.905
X2.4953Y-3.655
X2.6922Y-2.1353
X2.6922Y-2.8853
X2.6922Y-3.6353
X2.6938Y-2.1125
X2.6938Y-2.8625
X2.6938Y-3.6125
X3.1938Y-2.025
X3.1938Y-2.775
X3.1938Y-3.525
X3.1938Y-4.65
X3.2453Y-1.9675
X3.2453Y-2.7175
X3.2453Y-3.4675
X3.2453Y-4.5925
X3.4422Y-1.9478
X3.4422Y-2.6978
X3.4422Y-3.4478
X3.4422Y-4.5728
X3.4438Y-1.925
X3.4438Y-2.675
X3.4438Y-3.425
X3.4438Y-4.55
X3.9438Y-2.2125
X3.9438Y-2.9625
X3.9438Y-3.7125
X3.9438Y-4.8375
X3.9953Y-2.155
X3.9953Y-2.905
X3.9953Y-3.655
X3.9953Y-4.78
X4.1922Y-2.1353
X4.1922Y-2.8853
X4.1922Y-3.6353
X4.1922Y-4.7603
X4.1937Y-2.1125
X4.1937Y-2.8625
X4.1937Y-3.6125
X4.1937Y-4.7375
X4.6937Y-2.4
X4.6937Y-3.15
X4.6937Y-3.9
X4.7453Y-2.3425
X4.7453Y-3.0925
X4.7453Y-3.8425
X4.9422Y-2.3228
X4.9422Y-3.0728
X4.9422Y-3.8228
X4.9437Y-2.3
X4.9437Y-3.05
X4.9437Y-3.8
X4.9753Y-5.052
X4.9795Y-5.1291
X5.0855Y-4.8816
X5.1006Y-4.8989
X6.6521Y-4.917
X6.7293Y-4.9128
X6.85Y-2.4
X6.85Y-3.15
X6.85Y-3.9
X6.8824Y-5.0381
X6.8996Y-5.023
X6.9016Y-2.3425
X6.9016Y-3.0925
X6.9016Y-3.8425
X7.0984Y-2.3228
X7.0984Y-3.0728
X7.0984Y-3.8228
X7.1Y-2.3
X7.1Y-3.05
X7.1Y-3.8
X7.6Y-2.2125
X7.6Y-2.9625
X7.6Y-3.7125
X7.6Y-4.8375
X7.6516Y-2.155
X7.6516Y-2.905
X7.6516Y-3.655
X7.6516Y-4.78
X7.8484Y-2.1353
X7.8484Y-2.8853
X7.8484Y-3.6353
X7.8484Y-4.7603
X7.85Y-2.1125
X7.85Y-2.8625
X7.85Y-3.6125
X7.85Y-4.7375
X8.35Y-2.025
X8.35Y-2.775
X8.35Y-3.525
X8.35Y-4.65
X8.4016Y-1.9675
X8.4016Y-2.7175
X8.4016Y-3.4675
X8.4016Y-4.5925
X8.5984Y-1.9478
X8.5984Y-2.6978
X8.5984Y-3.4478
X8.5984Y-4.5728
X8.6Y-1.925
X8.6Y-2.675
X8.6Y-3.425
X8.6Y-4.55
X9.1Y-2.2125
X9.1Y-2.9625
X9.1Y-3.7125
X9.1516Y-2.155
X9.1516Y-2.905
X9.1516Y-3.655
X9.3484Y-2.1353
X9.3484Y-2.8853
X9.3484Y-3.6353
X9.35Y-2.1125
X9.35Y-2.8625
X9.35Y-3.6125
X9.85Y-2.4
X9.85Y-3.15
X9.85Y-3.9
X9.9016Y-2.3425
X9.9016Y-3.0925
X9.9016Y-3.8425
X10.0984Y-2.3228
X10.0984Y-3.0728
X10.0984Y-3.8228
X10.1Y-2.3
X10.1Y-3.05
X10.1Y-3.8
T3
G00X4.9443Y-3.361
M15
G01X5.0034Y-3.361
M16
G05
G00X4.9443Y-3.7015
M15
G01X5.0034Y-3.7015
M16
G05
G00X5.0912Y-3.361
M15
G01X5.1227Y-3.361
M16
G05
G00X5.0912Y-3.7015
M15
G01X5.1227Y-3.7015
M16
G05
G00X6.7526Y-3.361
M15
G01X6.7211Y-3.361
M16
G05
G00X6.7526Y-3.7015
M15
G01X6.7211Y-3.7015
M16
G05
G00X6.8994Y-3.361
M15
G01X6.8404Y-3.361
M16
G05
G00X6.8994Y-3.7015
M15
G01X6.8404Y-3.7015
M16
G05
T0
M30
